<?xml version="1.0" encoding="UTF-8"?>
<!DOCTYPE svg  PUBLIC '-//W3C//DTD SVG 20010904//EN'  'http://www.w3.org/TR/2001/REC-SVG-20010904/DTD/svg10.dtd'>
<svg width="256pt" height="256pt" version="1.0" viewBox="0 0 256 256" xmlns="http://www.w3.org/2000/svg">
<metadata>Created by potrace 1.10, written by Peter Selinger 2001-2011</metadata>
<g transform="translate(0 256) scale(.1 -.1)">
<path d="m860 1951c-84-10-158-24-175-33-41-22-101-87-174-188-34-47-67-85-74-85s-14 20-17 45c-5 44-6 45-45 48-26 2-55-5-85-20-38-20-45-28-45-53 0-42 33-57 113-52 34 3 62 1 62-3 0-11-26-20-55-20-30 0-193-133-207-169-6-14-13-78-15-141-4-73-11-122-19-135-11-15-14-74-14-263v-243l25-24c23-24 30-25 150-25s127 1 150 25c17 17 25 35 25 60 0 36 0 36 33 29 42-9 1532-9 1575 0 32 7 32 7 32-29 0-25 8-43 25-60 23-24 30-25 150-25s127 1 150 25l25 24v244c0 223-2 246-19 268-15 19-19 46-23 142-5 138-7 141-120 233-54 44-86 63-116 68-57 9-54 27 2 20 64-9 113 3 132 32 14 20 14 27 3 41-21 25-89 53-130 53s-49-11-49-66c0-21-5-34-13-34-7 0-41 40-75 89-80 114-167 198-213 205-230 39-709 47-969 17zm900-45c133-20 132-18 241-162 38-51 76-97 84-104 24-20 17-32-12-26-16 3-201 10-413 16-366 10-1107 0-1184-16l-29-6 19 25c103 136 137 178 170 214l39 43 125 15c69 8 141 17 160 19s181 3 360 1c238-2 356-7 440-19zm-1382-234c3-22 0-23-39-20-50 4-61 22-22 36 40 15 58 10 61-16zm1857 16c29-13 32-23 9-32-24-9-74-7-74 3 0 39 22 49 65 29zm-329-103c159-3 219-8 247-20 20-8 37-17 37-19s-30-13-68-25c-88-26-145-75-183-155-33-70-34-77-14-116 23-44 68-54 173-40 130 17 165 47 201 168 9 31 22 57 28 59 21 7 41-63 46-170 4-73 11-114 21-129 24-33 24-469 0-492-12-13-39-16-123-16-114 0-122 3-136 50-18 61 42 57-855 57h-821l-19-25c-11-13-20-32-20-41 0-34-22-41-131-41-84 0-111 3-123 16-14 13-16 49-16 240 0 157 4 232 12 247 7 12 15 74 18 138 5 85 11 124 23 143 10 14 21 26 26 26s15-24 21-52c32-134 92-178 252-181 87-2 90-1 114 26 28 33 30 63 9 114-36 86-110 152-201 178-30 8-54 17-54 20 0 2 15 11 32 20 28 13 88 17 378 22 190 3 347 8 350 10 3 3 131 2 285-1 154-4 375-9 491-11zm-1462-105c51-15 127-92 150-153 18-47 18-49 0-69-18-19-26-20-109-13-138 11-173 38-199 155-20 86-20 87 2 94 24 7 109-1 156-14zm1825 11c12-8 12-19 3-66-18-89-45-139-83-157-47-23-204-35-224-18-55 46 49 201 157 233 60 17 126 21 147 8z"/>
<path d="m1002 1259c-336-11-371-19-414-99-52-94 38-289 157-340 123-53 881-59 1042-9 65 21 109 64 152 150 58 115 55 185-11 246-37 35-101 43-408 49-157 3-292 6-300 7s-107-1-218-4zm610-39c267-10 294-16 323-77 20-41 15-78-19-156-30-67-66-110-110-131-90-43-611-61-891-31-172 18-210 37-261 130-47 84-58 140-36 185 32 64 59 72 285 80 301 10 447 10 709 0z"/>
<path d="m862 1190c-173-8-202-16-224-64-23-52 50-209 112-241 100-52 861-62 1017-14 17 6 43 19 58 31 34 26 84 127 90 181 6 45-4 65-44 86-48 26-625 38-1009 21zm896-40c52-5 100-14 108-21 22-18 16-61-18-129-24-47-42-69-68-81-102-51-721-63-953-18-65 12-110 54-138 128-26 70-20 96 27 111 72 24 824 31 1042 10z"/>
<path d="m237 1140c-32-37-30-54 14-146 31-65 96-134 127-134 11 0 27 9 37 20 23 26 33 25 56-4 11-14 29-28 40-31 28-9 69 30 69 64 0 36-34 160-53 197-24 46-67 58-111 29-21-14-25-14-50 6-15 11-44 23-65 26-33 5-41 1-64-27zm105-22c16-12 58-166 58-209 0-30-25-22-63 21-45 49-75 106-83 159l-7 41h40c21 0 46-6 55-12zm146-10c5-7 22-60 37-117 22-83 25-105 14-112-7-4-19-4-27 0-13 7-82 199-82 229 0 6 11 12 24 12s28-6 34-12z"/>
<path d="m2220 1163c-8-3-25-15-37-26-21-19-24-19-41-4-28 25-74 21-102-8-22-23-70-174-70-221 0-24 39-64 62-64 9 0 29 15 46 34l30 34 23-24c12-13 32-24 44-24 49 0 147 136 162 223 9 61-53 103-117 80zm80-56c0-49-33-119-80-170-37-40-51-49-60-40-10 9-7 33 11 109 13 53 30 103 37 111 7 7 31 13 53 13 34 0 39-3 39-23zm-172 1c-3-7-20-58-38-113-37-114-52-137-74-115-12 13-11 29 12 115 15 55 31 106 35 113 5 6 22 12 39 12 20 0 29-4 26-12z"/>
</g>
</svg>
